name C:\Users\u0101727\Documents\MyRepositories\upper-imu-dc\Results\main_tracking\Case_47\FLX03_orientations_groundFrame.mot
datacolumns 13
datarows 25
range 5.38000000 5.62000000
endheader 
time	radius_imu_[0][0]	radius_imu_[0][1]	radius_imu_[0][2]	radius_imu_[1][0]	radius_imu_[1][1]	radius_imu_[1][2]	radius_imu_[2][0]	radius_imu_[2][1]	radius_imu_[2][2]	radius_imu_x	radius_imu_y	radius_imu_z	
          5.38000000	          0.33151838	         -0.92756546	          0.17238875	         -0.59037765	         -0.06143507	          0.80478566	         -0.73590067	         -0.36857571	         -0.56798077	         -2.18537366	          0.17325422	          1.22753815	
          5.39000000	          0.32663957	         -0.92746678	          0.18196695	         -0.58607345	         -0.04771109	          0.80885200	         -0.74150152	         -0.37084907	         -0.55914798	         -2.17564993	          0.18298643	          1.23217659	
          5.40000000	          0.32200198	         -0.92714175	          0.19163223	         -0.58143375	         -0.03391885	          0.81288640	         -0.74716097	         -0.37317247	         -0.54999344	         -2.16563972	          0.19282493	          1.23652344	
          5.41000000	          0.31761668	         -0.92658859	          0.20137835	         -0.57646526	         -0.02006716	          0.81687521	         -0.75286616	         -0.37554081	         -0.54051979	         -2.15534702	          0.20276489	          1.24056738	
          5.42000000	          0.31349243	         -0.92580604	          0.21120057	         -0.57118002	         -0.00616417	          0.82080167	         -0.75860127	         -0.37794865	         -0.53073433	         -2.14478109	          0.21280308	          1.24429923	
          5.43000000	          0.30963544	         -0.92479328	          0.22109562	         -0.56559603	          0.00778226	          0.82464572	         -0.76434745	         -0.38039035	         -0.52064975	         -2.13395729	          0.22293775	          1.24771211	
          5.44000000	          0.30604923	         -0.92354991	          0.23106151	         -0.55973784	          0.02176417	          0.82838389	         -0.77008274	         -0.38286013	         -0.51028492	         -2.12289793	          0.23316858	          1.25080162	
          5.45000000	          0.30273432	         -0.92207593	          0.24109731	         -0.55363707	          0.03577303	          0.83198935	         -0.77578214	         -0.38535214	         -0.49966570	         -2.11163294	          0.24349635	          1.25356615	
          5.46000000	          0.29968791	         -0.92037182	          0.25120285	         -0.54733277	          0.04979935	          0.83543214	         -0.78141794	         -0.38786047	         -0.48882539	         -2.10020042	          0.25392276	          1.25600725	
          5.47000000	          0.29690360	         -0.91843863	          0.26137852	         -0.54087131	          0.06383248	          0.83867970	         -0.78696028	         -0.39037917	         -0.47780501	         -2.08864666	          0.26445009	          1.25813000	
          5.48000000	          0.29437113	         -0.91627810	          0.27162491	         -0.53430571	          0.07786054	          0.84169778	         -0.79237810	         -0.39290226	         -0.46665272	         -2.07702544	          0.27508101	          1.25994330	
          5.49000000	          0.29207635	         -0.91389267	          0.28194254	         -0.52769419	          0.09187059	          0.84445168	         -0.79764043	         -0.39542380	         -0.45542262	         -2.06539649	          0.28581818	          1.26145999	
          5.50000000	          0.29000158	         -0.91128557	          0.29233149	         -0.52109768	          0.10584907	          0.84690801	         -0.80271807	         -0.39793792	         -0.44417240	         -2.05382271	          0.29666392	          1.26269664	
          5.51000000	          0.28812619	         -0.90846077	          0.30279089	         -0.51457651	          0.11978237	          0.84903663	         -0.80758548	         -0.40043877	         -0.43296014	         -2.04236652	          0.30761966	          1.26367292	
          5.52000000	          0.28642775	         -0.90542294	          0.31331844	         -0.50818649	          0.13365751	          0.85081265	         -0.81222265	         -0.40292055	         -0.42184049	         -2.03108545	          0.31868542	          1.26441065	
          5.53000000	          0.28488321	         -0.90217736	          0.32390983	         -0.50197506	          0.14746276	          0.85221815	         -0.81661655	         -0.40537730	         -0.41086087	         -2.02002785	          0.32985920	          1.26493247	
          5.54000000	          0.28347021	         -0.89872980	          0.33455850	         -0.49597826	          0.16118826	          0.85324317	         -0.82076197	         -0.40780277	         -0.40005837	         -2.00922958	          0.34113670	          1.26526069	
          5.55000000	          0.28216814	         -0.89508640	          0.34525568	         -0.49021909	          0.17482639	          0.85388581	         -0.82466138	         -0.41019029	         -0.38945800	         -1.99871208	          0.35251120	          1.26541606	
          5.56000000	          0.28095898	         -0.89125342	          0.35599073	         -0.48470722	          0.18837200	          0.85415156	         -0.82832419	         -0.41253283	         -0.37907217	         -1.98848209	          0.36397404	          1.26541693	
          5.57000000	          0.27982797	         -0.88723694	          0.36675185	         -0.47944004	          0.20182256	          0.85405205	         -0.83176532	         -0.41482317	         -0.36890131	         -1.97853255	          0.37551517	          1.26527837	
          5.58000000	          0.27876417	         -0.88304246	          0.37752688	         -0.47440431	          0.21517805	          0.85360352	         -0.83500365	         -0.41705445	         -0.35893522	         -1.96884423	          0.38712408	          1.26501153	
          5.59000000	          0.27776082	         -0.87867451	          0.38830403	         -0.46957830	          0.22844075	          0.85282533	         -0.83806035	         -0.41922061	         -0.34915460	         -1.95938774	          0.39879050	          1.26462290	
          5.60000000	          0.27681563	         -0.87413637	          0.39907232	         -0.46493394	          0.24161485	          0.85173863	         -0.84095752	         -0.42131683	         -0.33953290	         -1.95012549	          0.41050489	          1.26411400	
          5.61000000	          0.27593055	         -0.86943003	          0.40982162	         -0.46043883	          0.25470585	          0.85036522	         -0.84371702	         -0.42333953	         -0.33003822	         -1.94101391	          0.42225850	          1.26348138	
          5.62000000	          0.27511119	         -0.86455650	          0.42054237	         -0.45605824	          0.26771971	          0.84872671	         -0.84635968	         -0.42528603	         -0.32063543	         -1.93200559	          0.43404304	          1.26271725	
